<svg xmlns="http://www.w3.org/2000/svg" width="512" height="512" viewBox="0 0 512 512">
  <rect width="512" height="512" rx="96" fill="#81007f"/>
  <g transform="translate(256,256) scale(4.2) translate(-45,-34.6)">
    <path fill="#ffffff" d="m45,0-12.948,34.626c-2.259,3.979-5.833,7.239-10.95,6.433-3.843-0.716-6.33-4.145-5.826-8.036 0.504-3.89 3.789-6.632 7.698-6.425 2.927,0.155 5.297,1.915 6.307,4.434l5.693-15.994c-3.196-2.11-6.968-3.422-11.035-3.638-11.764-0.623-22.238,8.12-23.753,19.828-1.515,11.708 6.412,22.638 17.978,24.792 1.446,0.269 2.89,0.391 4.318,0.375 5.771-0.065 11.259-2.377 15.376-6.245l7.142,19.101 12.948-34.627c2.259-3.979 5.833-7.239 10.95-6.433 3.843,0.716 6.33,4.145 5.826,8.036-0.504,3.89-3.788,6.632-7.698,6.425-2.927-0.155-5.298-1.915-6.307-4.434l-5.693,15.994c3.196,2.11 6.968,3.423 11.035,3.638 11.764,0.623 22.238-8.12 23.753-19.828 1.515-11.708-6.412-22.638-17.978-24.792-1.446-0.269-2.89-0.391-4.318-0.375-5.771,0.065-11.259,2.377-15.376,6.245z"/>
  </g>
</svg>